<svg xmlns="http://www.w3.org/2000/svg" width="461" height="108" fill="none" viewBox="0 0 461 108">
  <path fill="#FFF" fill-rule="evenodd" d="M112.375 16.732c0-8.645-6.994-15.66-15.64-15.686L15.82.81C7.139.784.088 7.815.088 16.495v5.833c0 .181.147.328.328.328h7.417a5.914 5.914 0 0 1 5.915 5.914v16.976c0 2.115 3.721 3.288 5.364 1.956 2.384-1.882 5.584-2.824 9.6-2.824 5.207 0 9.505 1.789 12.893 5.365 3.388 3.576 5.082 8.69 5.082 15.34 0 3.702-.627 7.31-1.882 10.824-1.255 3.513-3.263 6.43-6.023 8.752-2.76 2.259-6.337 3.388-10.73 3.388-4.743 0-8.514-1.2-11.314-3.602-1.295-1.111-3.874-.547-4.103 1.144a1.751 1.751 0 0 1-1.736 1.517H9.582a3.244 3.244 0 0 1-3.217-3.703c.104-.722.212-1.464.324-2.226.314-2.133.47-4.235.47-6.306v-40.08a7.071 7.071 0 0 0-7.07-7.07.081.081 0 0 0-.082.08v63.78c0 8.663 7.023 15.685 15.686 15.685H96.69c8.663 0 15.685-7.022 15.685-15.685V16.73Zm-48.636 17.97a3.576 3.576 0 0 1-3.577-3.576v-1.412a3.576 3.576 0 0 1 7.153 0v1.412a3.576 3.576 0 0 1-3.576 3.576ZM74.75 84.725c0 1.481-1.2 2.682-2.682 2.682H56.163a2.682 2.682 0 0 1 0-5.365h.988a3.67 3.67 0 0 0 3.67-3.67V54.655a3.764 3.764 0 0 0-3.764-3.765h-1.083a2.682 2.682 0 1 1 0-5.364h4.377a7.059 7.059 0 0 1 7.058 7.058v25.787a3.67 3.67 0 0 0 3.67 3.67h.989a2.683 2.683 0 0 1 2.682 2.683Zm23.084 3.623c7.717 0 14.541.023 14.541-.053v-5.688c0 .077-8.325.008-9.135 0h-4.748c-2.51 0-4.329-.753-5.458-2.258-1.067-1.57-1.6-3.608-1.6-6.118V58.984a8.188 8.188 0 0 1 8.188-8.188h5.552a2.635 2.635 0 1 0 0-5.27h-7.011a6.73 6.73 0 0 1-6.73-6.73v-3.435a3.294 3.294 0 1 0-6.587 0v6.776a3.388 3.388 0 0 1-3.388 3.389h-.753a2.635 2.635 0 1 0 0 5.27h.753a3.388 3.388 0 0 1 3.388 3.388v20.893c0 4.078 1.098 7.31 3.294 9.694 2.259 2.384 5.49 3.576 9.694 3.576Z" clip-rule="evenodd"/>
  <path fill="#FFF" d="M39.723 66.042c0-5.207-1.224-9.129-3.67-11.764-2.447-2.635-5.428-3.953-8.941-3.953-4.016 0-7.216 1.475-9.6 4.424-2.384 2.948-3.639 5.96-3.764 9.034v6.306c0 3.514 1.223 6.494 3.67 8.94 2.51 2.448 5.584 3.671 9.223 3.671 4.58 0 7.906-1.694 9.976-5.082 2.07-3.388 3.106-7.246 3.106-11.576Zm119.333-.659c0 3.702-.628 7.31-1.882 10.824-1.255 3.513-3.263 6.43-6.024 8.752-2.76 2.259-6.337 3.388-10.729 3.388-4.743 0-8.515-1.2-11.314-3.602-1.295-1.111-3.875-.547-4.103 1.144a1.752 1.752 0 0 1-1.736 1.517h-1.318a3.244 3.244 0 0 1-3.217-3.703c.104-.722.213-1.464.325-2.226.313-2.133.47-4.235.47-6.306V32.83a4.808 4.808 0 0 0-4.808-4.809h-2.126a2.682 2.682 0 0 1 0-5.364h7.608a5.914 5.914 0 0 1 5.914 5.914v16.976c0 2.115 3.722 3.288 5.365 1.956 2.384-1.882 5.584-2.824 9.599-2.824 5.208 0 9.506 1.789 12.894 5.365 3.388 3.576 5.082 8.69 5.082 15.34Zm-6.965.66c0-5.208-1.223-9.13-3.67-11.765s-5.427-3.953-8.941-3.953c-4.015 0-7.215 1.475-9.599 4.424-2.385 2.949-3.639 5.96-3.765 9.035v6.305c0 3.514 1.224 6.494 3.671 8.94 2.509 2.448 5.584 3.671 9.223 3.671 4.58 0 7.905-1.694 9.976-5.082 2.07-3.388 3.105-7.246 3.105-11.576Zm55.356.376c0 6.337-1.882 11.576-5.647 15.717-3.764 4.14-8.878 6.211-15.34 6.211-6.337 0-11.325-2.008-14.964-6.023-3.577-4.016-5.365-9.192-5.365-15.529 0-6.086 1.757-11.293 5.271-15.623 3.513-4.392 8.658-6.588 15.434-6.588 6.839 0 11.984 2.165 15.435 6.494 3.451 4.267 5.176 9.38 5.176 15.34Zm-6.964-.094c0-4.769-1.224-8.627-3.671-11.576-2.384-3.012-5.772-4.518-10.164-4.518-4.392 0-7.78 1.537-10.164 4.612-2.322 3.074-3.482 6.933-3.482 11.576 0 4.58 1.16 8.439 3.482 11.576 2.321 3.137 5.709 4.705 10.164 4.705s7.874-1.537 10.258-4.611c2.385-3.137 3.577-7.059 3.577-11.764Zm61.804 18.399a2.682 2.682 0 0 1-2.683 2.682h-9.925a1.51 1.51 0 0 1-1.509-1.51c0-1.593-2.706-2.429-3.922-1.4a17.25 17.25 0 0 1-1.914 1.404c-2.509 1.631-5.427 2.447-8.752 2.447-4.078 0-7.529-1.255-10.353-3.764-2.76-2.573-4.141-6.651-4.141-12.235V54.56a3.67 3.67 0 0 0-3.67-3.67h-.988a2.682 2.682 0 1 1 0-5.364h4.282a6.964 6.964 0 0 1 6.964 6.964v17.976c0 4.517.942 7.686 2.824 9.505 1.882 1.82 4.298 2.73 7.247 2.73 3.576 0 6.493-1.35 8.752-4.047 2.322-2.698 3.545-5.553 3.671-8.565V55.266a4.377 4.377 0 0 0-4.377-4.376h-1.694a2.682 2.682 0 0 1 0-5.364h4.988a7.67 7.67 0 0 1 7.67 7.67v25.081a3.765 3.765 0 0 0 3.765 3.765h1.082c1.482 0 2.683 1.2 2.683 2.682Zm54.449 0a2.682 2.682 0 0 1-2.683 2.682h-15.811a2.682 2.682 0 0 1 0-5.364h.941a3.623 3.623 0 0 0 3.624-3.624V62.56c0-4.517-.91-7.686-2.729-9.505-1.82-1.883-4.142-2.824-6.965-2.824-3.764 0-6.807 1.255-9.129 3.765-2.259 2.447-3.451 5.27-3.576 8.47v15.905a3.67 3.67 0 0 0 3.67 3.67h.988a2.682 2.682 0 1 1 0 5.365h-15.905a2.682 2.682 0 0 1 0-5.364h.988a3.67 3.67 0 0 0 3.671-3.67V54.654a3.765 3.765 0 0 0-3.765-3.765h-1.082a2.682 2.682 0 0 1 0-5.364h9.924a1.51 1.51 0 0 1 1.511 1.51c0 1.565 2.472 2.326 3.659 1.306 2.842-2.442 6.516-3.663 11.022-3.663 4.079 0 7.498 1.254 10.259 3.764s4.141 6.557 4.141 12.14v17.835a3.623 3.623 0 0 0 3.623 3.624h.941c1.482 0 2.683 1.2 2.683 2.682Zm33.194-9.292c1.226.393 2.012 1.617 1.716 2.87-1.584 6.697-5.872 10.045-12.865 10.045-4.204 0-7.435-1.192-9.694-3.576-2.196-2.384-3.294-5.616-3.294-9.694V54.184a3.388 3.388 0 0 0-3.388-3.388h-.753a2.635 2.635 0 0 1 0-5.27h.753a3.388 3.388 0 0 0 3.388-3.389v-6.776a3.294 3.294 0 0 1 6.588 0v3.436a6.73 6.73 0 0 0 6.729 6.729h7.012a2.635 2.635 0 0 1 0 5.27h-5.553a8.188 8.188 0 0 0-8.188 8.188V74.23c0 2.51.534 4.549 1.6 6.117 1.13 1.506 2.949 2.26 5.459 2.26 1.631 0 3.137-.503 4.517-1.507.976-.678 1.765-1.902 2.368-3.67.515-1.512 2.084-2.486 3.605-1.998Zm16.059-40.729a3.576 3.576 0 0 1-3.577-3.577v-1.412a3.576 3.576 0 0 1 7.153 0v1.412a3.576 3.576 0 0 1-3.576 3.576ZM377 84.722a2.682 2.682 0 0 1-2.682 2.683h-15.906a2.682 2.682 0 0 1 0-5.364h.989a3.67 3.67 0 0 0 3.67-3.67V54.654a3.764 3.764 0 0 0-3.765-3.765h-1.082a2.682 2.682 0 0 1 0-5.364h4.376a7.058 7.058 0 0 1 7.059 7.058V78.37a3.67 3.67 0 0 0 3.67 3.67h.989A2.683 2.683 0 0 1 377 84.723Zm40.123-9.962c1.531.337 2.567 1.824 2.032 3.297-.889 2.45-2.447 4.624-4.672 6.526-3.012 2.51-7.09 3.764-12.235 3.764-5.898 0-10.666-1.85-14.305-5.552-3.639-3.702-5.459-8.941-5.459-15.718 0-6.525 1.726-11.89 5.176-16.093 3.451-4.204 8.125-6.306 14.023-6.306 5.773 0 10.165 1.82 13.176 5.46 3.012 3.638 4.549 7.936 4.612 12.893 0 2.939-2.656 4.988-5.595 4.988h-20.945c-1.901 0-3.454 1.588-3.148 3.464 1.22 7.478 5.532 11.217 12.936 11.217 3.325 0 5.929-.784 7.811-2.353a10.875 10.875 0 0 0 2.777-3.494c.725-1.438 2.244-2.44 3.816-2.094Zm-6.875-11.635c1.282 0 2.384-.977 2.298-2.256-.155-2.305-.921-4.502-2.298-6.59-1.757-2.762-4.675-4.142-8.753-4.142-3.89 0-6.745 1.286-8.564 3.859-1.22 1.724-2.13 3.66-2.729 5.808-.484 1.733.93 3.32 2.729 3.32h17.317Zm50.419 12.14c0 4.079-1.726 7.278-5.177 9.6-3.388 2.321-7.591 3.482-12.611 3.482-2.949 0-5.898-.376-8.846-1.13a33.207 33.207 0 0 1-3.7-1.267c-2.137-.888-3.156-3.206-2.839-5.498l.429-3.093a2.768 2.768 0 0 1 5.506.52l-.033.644c-.07 1.39.693 2.712 2.007 3.172 2.271.796 4.669 1.194 7.194 1.194 2.949 0 5.553-.565 7.811-1.694 2.322-1.193 3.482-2.98 3.482-5.365 0-2.321-.878-3.953-2.635-4.894-1.756-.941-3.952-1.631-6.588-2.07-2.572-.44-5.176-.973-7.811-1.6-2.635-.628-4.831-1.694-6.588-3.2-1.757-1.569-2.635-3.984-2.635-7.247 0-4.455 1.631-7.592 4.894-9.411 3.262-1.82 6.807-2.73 10.635-2.73 2.886 0 5.584.377 8.093 1.13a33.47 33.47 0 0 1 3.557 1.248c1.912.805 3.065 2.692 3.283 4.755l.398 3.757a2.813 2.813 0 0 1-5.579.721l-.268-1.757c-.224-1.461-1.115-2.768-2.503-3.278-2.02-.745-4.159-1.117-6.417-1.117-2.635 0-4.8.502-6.494 1.506s-2.541 2.572-2.541 4.706c0 2.196.879 3.764 2.636 4.705 1.756.879 3.921 1.538 6.493 1.977a83.38 83.38 0 0 1 7.718 1.506c2.572.627 4.737 1.756 6.493 3.388 1.757 1.568 2.636 4.015 2.636 7.34Z"/>
</svg>
